<svg width="46" height="45" viewBox="0 0 46 45" fill="none" xmlns="http://www.w3.org/2000/svg">
<ellipse cx="23" cy="22.5001" rx="17.0455" ry="17.0455" fill="#FFFCFC"/>
<path d="M22.9999 45C35.2867 45 45.5 34.7868 45.5 22.5C45.5 10.1912 35.2646 0 22.9779 0C10.669 0 0.5 10.1912 0.5 22.5C0.5 34.7868 10.6911 45 22.9999 45ZM17.2426 27.9927C11.772 22.5441 8.28671 15.5955 12.4117 11.4706C12.6543 11.2279 12.9191 10.9852 13.1617 10.7426C14.419 9.55145 15.6323 9.61762 16.7131 11.1397L19.5808 15.2206C20.5513 16.6323 20.3087 17.4265 19.272 18.5295L18.3675 19.5221C18.0367 19.8308 18.169 20.25 18.3235 20.5147C18.7426 21.3088 19.9337 22.7206 21.2131 24C22.5367 25.3235 23.8823 26.4485 24.7205 26.9118C25.0294 27.0882 25.4705 27.1324 25.7573 26.8676L26.7058 25.9633C27.7646 24.9265 28.6249 24.6618 29.9925 25.6323C31.8896 26.9779 33.0367 27.7721 34.1617 28.5442C35.5513 29.5588 35.8822 30.8163 34.4705 32.0956C34.2278 32.3382 34.0072 32.603 33.7646 32.8456C29.6396 36.9486 22.7131 33.4632 17.2426 27.9927Z" fill="#111606"/>
</svg>
