<svg width="30" height="31" viewBox="0 0 30 31" fill="none" xmlns="http://www.w3.org/2000/svg">
<g id="Group 14025">
<path id="Vector" d="M0 15.9316C0 15.4306 0 14.9326 0 14.4316C0.036 14.3326 0.093 14.2336 0.102 14.1346C0.264 11.8156 0.918 9.64062 2.133 7.66062C4.644 3.56863 8.271 1.13862 13.041 0.451625C13.416 0.397625 13.791 0.328625 14.166 0.265625C14.694 0.265625 15.222 0.265625 15.75 0.265625C15.849 0.298625 15.948 0.358625 16.05 0.364625C18.027 0.472625 19.905 0.970625 21.654 1.88563C26.316 4.31562 29.043 8.14062 29.823 13.3486C29.88 13.7386 29.943 14.1256 30 14.5156C30 15.0436 30 15.5716 30 16.0996C29.928 16.5706 29.862 17.0446 29.787 17.5156C29.22 21.0346 27.63 24.0016 24.978 26.3896C22.689 28.4476 20.016 29.6836 16.956 30.0796C16.581 30.1276 16.206 30.2026 15.831 30.2656C15.276 30.2656 14.721 30.2656 14.163 30.2656C14.034 30.2296 13.911 30.1816 13.779 30.1606C13.095 30.0556 12.402 30.0016 11.73 29.8486C8.577 29.1436 5.922 27.5746 3.783 25.1536C1.785 22.8826 0.579 20.2366 0.18 17.2246C0.123 16.7956 0.06 16.3636 0 15.9316ZM16.347 13.4656C16.356 13.4656 16.365 13.4656 16.374 13.4656C16.374 12.8956 16.38 12.3256 16.371 11.7586C16.362 11.1076 16.167 10.7956 15.522 10.7476C14.481 10.6696 13.428 10.6696 12.381 10.7086C12.069 10.7206 11.742 10.9456 11.466 11.1346C11.223 11.3026 11.226 11.4856 11.586 11.5636C12.072 11.6686 12.357 11.9836 12.405 12.4846C12.456 13.0216 12.537 13.5586 12.534 14.0956C12.531 14.5906 12.462 15.0916 12.372 15.5806C12.264 16.1566 11.937 16.2586 11.499 15.8746C11.334 15.7306 11.184 15.5596 11.052 15.3856C10.218 14.2696 9.576 13.0426 9.039 11.7616C8.868 11.3536 8.586 11.1076 8.169 11.1046C7.23 11.0926 6.288 11.1016 5.349 11.1526C4.749 11.1856 4.602 11.4646 4.854 12.0196C5.895 14.3086 7.056 16.5256 8.562 18.5506C10.29 20.8786 12.525 22.1206 15.486 21.8956C16.095 21.8476 16.326 21.6316 16.365 21.0286C16.386 20.6866 16.425 20.3356 16.524 20.0086C16.761 19.2166 17.19 19.0996 17.79 19.6726C18.231 20.0926 18.624 20.5636 19.041 21.0076C19.467 21.4606 19.944 21.8896 20.583 21.9076C21.672 21.9376 22.767 21.9286 23.85 21.8386C24.498 21.7846 24.696 21.2926 24.366 20.7166C24.12 20.2876 23.826 19.8736 23.49 19.5106C22.917 18.8896 22.284 18.3226 21.699 17.7136C21.219 17.2186 21.195 16.9156 21.591 16.3516C22.053 15.6946 22.575 15.0766 23.025 14.4106C23.505 13.7026 23.988 12.9856 24.372 12.2236C24.759 11.4556 24.459 11.0746 23.595 11.0926C22.611 11.1136 21.627 11.1316 20.643 11.1466C20.004 11.1556 19.911 11.2336 19.653 11.8246C19.389 12.4336 19.146 13.0636 18.801 13.6246C18.324 14.3986 17.79 15.1456 17.217 15.8506C16.89 16.2526 16.563 16.1326 16.416 15.6256C16.362 15.4426 16.35 15.2446 16.347 15.0526C16.341 14.5186 16.347 13.9936 16.347 13.4656Z" fill="#111606"/>
<path id="Vector_2" d="M16.3476 13.4656C16.3476 13.9936 16.3416 14.5216 16.3506 15.0496C16.3536 15.2416 16.3686 15.4396 16.4196 15.6226C16.5666 16.1296 16.8936 16.2496 17.2206 15.8476C17.7966 15.1426 18.3276 14.3956 18.8046 13.6216C19.1496 13.0606 19.3926 12.4306 19.6566 11.8216C19.9116 11.2306 20.0076 11.1556 20.6466 11.1436C21.6306 11.1286 22.6146 11.1076 23.5986 11.0896C24.4626 11.0716 24.7626 11.4526 24.3756 12.2206C23.9916 12.9826 23.5086 13.6996 23.0286 14.4076C22.5786 15.0736 22.0566 15.6916 21.5946 16.3486C21.1986 16.9126 21.2256 17.2156 21.7026 17.7106C22.2906 18.3196 22.9206 18.8866 23.4936 19.5076C23.8296 19.8706 24.1236 20.2846 24.3696 20.7136C24.6996 21.2896 24.5016 21.7816 23.8536 21.8356C22.7706 21.9256 21.6726 21.9346 20.5866 21.9046C19.9476 21.8866 19.4676 21.4576 19.0446 21.0046C18.6276 20.5606 18.2346 20.0896 17.7936 19.6696C17.1966 19.0966 16.7676 19.2136 16.5276 20.0056C16.4286 20.3326 16.3896 20.6836 16.3686 21.0256C16.3296 21.6286 16.0986 21.8446 15.4896 21.8926C12.5316 22.1206 10.2966 20.8756 8.56557 18.5476C7.05957 16.5196 5.89857 14.3026 4.85757 12.0166C4.60557 11.4616 4.74957 11.1796 5.35257 11.1496C6.29157 11.1016 7.23357 11.0896 8.17257 11.1016C8.58957 11.1076 8.87157 11.3536 9.04257 11.7586C9.57957 13.0396 10.2186 14.2666 11.0556 15.3826C11.1876 15.5596 11.3376 15.7276 11.5026 15.8716C11.9406 16.2586 12.2676 16.1566 12.3756 15.5776C12.4656 15.0886 12.5346 14.5906 12.5376 14.0926C12.5406 13.5556 12.4626 13.0186 12.4086 12.4816C12.3606 11.9806 12.0756 11.6626 11.5896 11.5606C11.2296 11.4826 11.2296 11.2996 11.4696 11.1316C11.7456 10.9396 12.0726 10.7176 12.3846 10.7056C13.4286 10.6636 14.4816 10.6666 15.5256 10.7446C16.1706 10.7926 16.3656 11.1046 16.3746 11.7556C16.3836 12.3256 16.3776 12.8956 16.3776 13.4626C16.3626 13.4656 16.3536 13.4656 16.3476 13.4656Z" fill="white"/>
</g>
</svg>
