<svg width="30" height="31" viewBox="0 0 30 31" fill="none" xmlns="http://www.w3.org/2000/svg">
<path d="M15 30.5C23.2843 30.5 30 23.7843 30 15.5C30 7.21573 23.2843 0.5 15 0.5C6.71573 0.5 0 7.21573 0 15.5C0 23.7843 6.71573 30.5 15 30.5Z" fill="#111606"/>
<path fill-rule="evenodd" clip-rule="evenodd" d="M7.81634 21.4429C7.16234 21.2449 6.64634 20.7409 6.43034 20.0899C5.82734 18.4369 5.64735 11.5309 6.81134 10.1689C7.19834 9.72488 7.74435 9.45188 8.32935 9.40988C11.4463 9.07388 21.0763 9.11889 22.1833 9.52088C22.8133 9.72488 23.3143 10.2079 23.5453 10.8289C24.2053 12.5389 24.2263 18.7489 23.4553 20.3929C23.2513 20.8219 22.9093 21.1669 22.4833 21.3769C21.3253 21.9559 9.35834 21.9439 7.81634 21.4429ZM12.7663 18.2029L18.3523 15.2989L12.7663 12.3709V18.2029Z" fill="white"/>
</svg>
