<svg width="30" height="31" viewBox="0 0 30 31" fill="none" xmlns="http://www.w3.org/2000/svg">
<g id="Group 14028">
<path id="Vector" d="M15 30.5C23.2843 30.5 30 23.7843 30 15.5C30 7.21573 23.2843 0.5 15 0.5C6.71573 0.5 0 7.21573 0 15.5C0 23.7843 6.71573 30.5 15 30.5Z" fill="#111606"/>
<path id="Vector_2" d="M22.7054 7.85742H7.28219C5.80905 7.85742 4.60449 9.05384 4.60449 10.5351V20.4727C4.60449 21.9459 5.80091 23.1504 7.28219 23.1504H22.7054C24.1786 23.1504 25.3831 21.954 25.3831 20.4727V10.527C25.375 9.05384 24.1786 7.85742 22.7054 7.85742ZM18.8232 15.0848L23.4542 11.2351V19.7239L18.8232 15.0848ZM6.53341 19.7158V11.2269L11.1644 15.0766L6.53341 19.7158ZM7.72983 9.7782H22.2496L14.9897 15.8173L7.72983 9.7782ZM7.28219 21.2134C7.18452 21.2134 7.095 21.1971 7.00547 21.1645L12.2144 15.9556L14.3875 17.7625C14.5584 17.909 14.7781 17.9822 14.9897 17.9822C15.2013 17.9822 15.4211 17.909 15.592 17.7625L17.7651 15.9556L22.974 21.1645C22.8926 21.1971 22.7949 21.2134 22.6973 21.2134H7.28219Z" fill="white"/>
</g>
</svg>
