<svg width="45" height="45" viewBox="0 0 45 45" fill="none" xmlns="http://www.w3.org/2000/svg">
<g id="phone">
<ellipse id="Ellipse 31" cx="22.4996" cy="22.5006" rx="17.0455" ry="17.0455" fill="#FFFCFC"/>
<path id="Vector" d="M22.4999 45C34.7867 45 45 34.7868 45 22.5C45 10.1912 34.7646 0 22.4779 0C10.169 0 0 10.1912 0 22.5C0 34.7868 10.1911 45 22.4999 45ZM16.7426 27.9927C11.272 22.5441 7.78671 15.5955 11.9117 11.4706C12.1543 11.2279 12.4191 10.9852 12.6617 10.7426C13.919 9.55145 15.1323 9.61762 16.2131 11.1397L19.0808 15.2206C20.0513 16.6323 19.8087 17.4265 18.772 18.5295L17.8675 19.5221C17.5367 19.8308 17.669 20.25 17.8235 20.5147C18.2426 21.3088 19.4337 22.7206 20.7131 24C22.0367 25.3235 23.3823 26.4485 24.2205 26.9118C24.5294 27.0882 24.9705 27.1324 25.2573 26.8676L26.2058 25.9633C27.2646 24.9265 28.1249 24.6618 29.4925 25.6323C31.3896 26.9779 32.5367 27.7721 33.6617 28.5442C35.0513 29.5588 35.3822 30.8163 33.9705 32.0956C33.7278 32.3382 33.5072 32.603 33.2646 32.8456C29.1396 36.9486 22.2131 33.4632 16.7426 27.9927Z" fill="#FD5189"/>
</g>
</svg>
