<svg width="30" height="31" viewBox="0 0 30 31" fill="none" xmlns="http://www.w3.org/2000/svg">
<g id="Group 14024">
<path id="Vector" d="M15 30.2656C23.2843 30.2656 30 23.5499 30 15.2656C30 6.98135 23.2843 0.265625 15 0.265625C6.71573 0.265625 0 6.98135 0 15.2656C0 23.5499 6.71573 30.2656 15 30.2656Z" fill="#111606"/>
<path id="Vector_2" fill-rule="evenodd" clip-rule="evenodd" d="M6.78025 15.1034C11.1516 13.2049 14.0617 11.9435 15.523 11.3315C19.682 9.59544 20.5563 9.29569 21.1183 9.2832C21.2432 9.2832 21.518 9.30818 21.7053 9.45806C21.8552 9.58295 21.8927 9.74532 21.9176 9.87021C21.9426 9.99511 21.9676 10.2574 21.9426 10.4572C21.7178 12.8302 20.7436 18.5879 20.244 21.2357C20.0317 22.3598 19.6196 22.7345 19.2199 22.772C18.3456 22.8469 17.6837 22.1974 16.8469 21.6479C15.523 20.7861 14.7861 20.2491 13.4997 19.3998C12.0134 18.4256 12.9751 17.8885 13.8244 17.0143C14.0492 16.7894 17.8835 13.2924 17.9584 12.9801C17.9709 12.9427 17.9709 12.7928 17.8835 12.7178C17.7961 12.6429 17.6712 12.6679 17.5713 12.6929C17.4339 12.7178 15.3356 14.1167 11.2515 16.8769C10.652 17.289 10.115 17.4889 9.62788 17.4764C9.09083 17.4639 8.06668 17.1766 7.29233 16.9268C6.35561 16.6271 5.60623 16.4647 5.66868 15.9402C5.70615 15.6654 6.08083 15.3906 6.78025 15.1034Z" fill="white"/>
</g>
</svg>
