<svg width="215" height="101" viewBox="0 0 215 101" fill="none" xmlns="http://www.w3.org/2000/svg">
<path d="M176.631 88.0689C175.419 88.2219 174.21 88.3218 173.011 88.3729C155.332 89.1145 139.272 78.9622 131.83 63.4374L144.845 32.7625V61.0661C144.841 61.3828 144.805 61.6982 144.737 62.0075C144.671 62.3374 144.554 62.655 144.391 62.9488C144.24 63.2247 144.052 63.4782 143.832 63.7024C143.745 63.8013 143.638 63.8812 143.519 63.9372C143.4 63.9932 143.271 64.0241 143.14 64.0281H142.873V64.571H150.438V64.0281H150.174C150.034 64.0284 149.895 63.9997 149.767 63.9436C149.639 63.8876 149.523 63.8055 149.428 63.7024C149.208 63.4785 149.02 63.2249 148.869 62.9488C148.705 62.6552 148.588 62.3376 148.522 62.0075C148.454 61.6983 148.418 61.3828 148.415 61.0661V32.3857C148.419 32.0956 148.456 31.8068 148.522 31.5247C148.592 31.2042 148.709 30.896 148.869 30.6104C149.016 30.3397 149.204 30.0942 149.428 29.8829C149.629 29.691 149.897 29.5852 150.174 29.5876H150.44V29.0501H144.42L132.058 58.484L119.696 29.0501H114.269V29.5876H114.535C114.795 29.5929 115.042 29.6986 115.227 29.8829C115.449 30.09 115.631 30.3366 115.765 30.6104C115.909 30.9007 116.017 31.2077 116.087 31.5247C116.154 31.8069 116.19 32.0956 116.195 32.3857V37.5215C111.294 34.1556 105.169 32.7636 99.1026 34.0654L92.7119 16.6807L76.5873 60.0584C76.2449 60.9936 75.7584 61.8684 75.1457 62.6502C74.5581 63.385 73.9597 63.7523 73.3505 63.7523H72.999V64.4635H80.813V63.7523H80.4615C80.0853 63.7523 79.733 63.5746 79.4048 63.2192C79.0766 62.8638 78.9125 62.3777 78.9125 61.761C78.9202 61.3954 78.9931 61.0342 79.1275 60.6947L82.3524 51.7423C82.0879 52.9367 81.9718 54.1756 82.4663 55.5426C82.6525 56.0316 82.8927 56.4978 83.1823 56.9324C83.1919 56.9986 83.1984 57.0638 83.207 57.13L83.3005 57.1018C83.8767 57.9172 84.7678 58.7989 86.0514 59.0921C86.4083 59.1724 87.6283 59.4308 88.8312 58.7023C89.0355 58.5785 90.4792 57.674 90.5587 56.1604C90.6318 54.7489 89.4838 53.6631 88.6646 52.8921C88.0315 52.2928 87.9121 52.3862 86.2427 51.0376C85.143 50.1472 84.8807 49.8519 84.6883 49.4284C84.2583 48.474 84.4959 47.588 84.4733 47.2503C85.9944 42.2665 89.5257 38.4293 94.921 36.1426L96.7957 41.2828H96.756L98.0309 44.9582L103.907 60.9814C104.042 61.3699 104.115 61.778 104.122 62.1899C104.122 63.233 103.558 63.7545 102.432 63.7545H102.08V64.4657H112.5V63.7545H112.147C111.208 63.7545 110.445 63.3043 109.86 62.4038C109.291 61.5403 108.829 60.6088 108.487 59.6306L99.3434 34.7451C105.287 33.5117 111.361 34.9742 116.185 38.3598V61.0661C116.181 61.3828 116.145 61.6982 116.078 62.0075C116.011 62.334 115.902 62.6504 115.755 62.9488C115.618 63.2281 115.437 63.4827 115.218 63.7024C115.13 63.8013 115.024 63.8812 114.905 63.9372C114.786 63.9932 114.657 64.0241 114.525 64.0281H114.269V64.571H120.074V64.0281H119.808C119.668 64.0285 119.53 63.9997 119.402 63.9437C119.273 63.8876 119.158 63.8055 119.063 63.7024C118.843 63.4783 118.654 63.2247 118.503 62.9488C118.34 62.655 118.223 62.3374 118.157 62.0075C118.089 61.6982 118.053 61.3828 118.049 61.0661V39.8234C119.92 41.4466 121.513 43.3713 122.762 45.5196L128.448 58.9064C134.85 78.8026 154.547 92.0147 175.847 89.3382C187.541 87.868 197.968 81.8863 205.208 72.4963C207.198 69.9116 208.902 67.115 210.289 64.1562C209.01 66.6995 207.493 69.1131 205.757 71.3638C198.573 80.6745 188.228 86.6117 176.631 88.0689ZM85.1172 43.8659L85.9621 41.2893H85.9525L86.0471 41.0287L91.3725 26.4225L94.6737 35.4748C90.2771 37.3348 87.0629 40.2056 85.1172 43.8659ZM118.049 38.9461V34.4303L121.538 42.6454C120.514 41.2844 119.344 40.0423 118.049 38.9418V38.9461Z" fill="black"/>
<path d="M214.654 38.7506C213.21 27.0358 207.336 16.5872 198.117 9.33728C188.898 2.08739 177.423 -1.11356 165.826 0.344674C159.801 1.09412 153.997 3.10556 148.785 6.25035C153.778 3.42229 159.269 1.60477 164.951 0.899518C166.185 0.744611 167.415 0.64146 168.643 0.590065C179.056 0.155744 189.185 3.41858 197.503 9.96053C206.8 17.2734 212.721 27.8057 214.176 39.617C215.227 48.0041 213.878 56.5196 210.287 64.1561C214.229 56.3204 215.75 47.4697 214.654 38.7506Z" fill="black"/>
<path d="M135.592 17.7404C134.407 19.2823 133.323 20.8999 132.345 22.5831L132.9 22.8751C134.015 20.8354 135.287 18.8866 136.702 17.0466C140.031 12.7204 144.129 9.05789 148.785 6.24609C143.673 9.15205 139.188 13.0599 135.592 17.7404Z" fill="black"/>
<path d="M70.4654 60.5199C70.3052 61.0389 70.2504 61.1714 69.9419 61.4852C69.5549 61.8891 69.3517 61.9 68.8035 62.1714C68.2735 62.4342 67.392 62.5894 66.7191 62.5894H55.0846V46.3296H63.8994C64.7501 46.3296 65.4406 46.5619 65.9709 47.0267C66.5012 47.4914 66.7671 48.0459 66.7685 48.6901H67.2996V41.9831H66.7685C66.7685 42.6628 66.4941 43.2531 65.9451 43.754C65.3962 44.255 64.7153 44.5051 63.9027 44.5043H55.0879V30.9318H65.7667C66.9699 30.9318 67.8553 31.2449 68.4229 31.871C68.975 32.4652 69.3118 33.2306 69.3786 34.0426H69.9161V29.0479H49.4485V29.5843H49.7141C49.9902 29.5823 50.2566 29.6876 50.458 29.8786C50.6803 30.0895 50.8685 30.3342 51.0159 30.6039C51.1755 30.8918 51.3004 31.198 51.3878 31.516C51.4694 31.7951 51.5139 32.0839 51.52 32.3748V52.5045C47.8651 48.018 42.9933 44.8149 37.1046 43.2383V19.6525H47.1417C48.0482 19.6525 48.8419 19.8204 49.5227 20.1563C50.1634 20.4633 50.7405 20.8903 51.2233 21.4148C51.6633 21.8969 52.0097 22.4582 52.2446 23.0695C52.4633 23.6311 52.5785 24.2283 52.5842 24.8318H53.4356V16.9912H15.2504V24.8318H16.1018C16.1087 24.2279 16.2257 23.6306 16.4468 23.0695C16.6805 22.4576 17.027 21.8961 17.4681 21.4148C17.9508 20.8901 18.5279 20.4631 19.1687 20.1563C19.8488 19.8212 20.6425 19.6532 21.5497 19.6525H31.4105V42.2665C16.2533 41.1394 2.53344 51.916 0.308239 67.1476C-2.01801 83.0633 9.07573 97.9041 25.037 100.224C29.0305 100.808 33.1002 100.555 36.9928 99.4817C38.2405 99.1821 39.4627 98.7827 40.6477 98.2873C43.0868 97.2656 46.1527 95.297 46.9836 93.3556C47.1556 92.9528 48.925 89.0689 47.0718 85.6323C46.803 85.1329 46.0656 83.2501 43.706 82.4998C41.9861 81.9569 40.2984 81.8385 38.3312 83.0611C36.4747 84.2154 36.3339 87.5129 36.58 89.2448C36.7746 90.6129 36.752 90.7769 37.1842 94.1993C37.4604 96.3872 37.3486 96.6619 37.0552 97.3253C36.4478 98.6967 35.8447 99.2048 35.1933 99.561C31.8692 100.262 28.4493 100.369 25.0886 99.878C9.31975 97.5827 -1.63854 82.9243 0.658681 67.1987C2.85808 52.144 16.4232 41.4934 31.4105 42.6216V59.7924C31.4049 60.2173 31.3479 60.64 31.2406 61.0509C31.13 61.4999 30.9431 61.926 30.6881 62.3104C30.4389 62.6868 30.1381 63.0257 29.7948 63.3169C29.4631 63.6029 29.0398 63.7572 28.6037 63.7513H28.1791V64.4711H40.2564V63.7513H39.8265C39.4025 63.7624 38.9908 63.6066 38.6784 63.3169C38.3561 63.017 38.0707 62.679 37.8281 62.3104C37.5727 61.9263 37.3857 61.5 37.2755 61.0509C37.1669 60.6402 37.1095 60.2175 37.1046 59.7924V43.627C42.7424 45.2085 47.7703 48.4855 51.52 53.0224V61.0867C51.5168 61.3957 51.4723 61.7029 51.3878 61.9999C51.3002 62.3177 51.1753 62.6239 51.0159 62.9119C50.8688 63.1815 50.6805 63.4259 50.458 63.6362C50.2568 63.8275 49.9904 63.9333 49.7141 63.9315H49.4485V64.4679H71.2351V59.205H70.704C70.6885 59.6527 70.6081 60.0957 70.4654 60.5199Z" fill="black"/>
<path d="M161.891 63.1528C164.047 64.1445 166.474 64.6403 169.172 64.6403C171.611 64.6565 174.03 64.1967 176.296 63.2863C178.464 62.4195 180.453 61.1496 182.158 59.5425C183.856 57.926 185.206 55.9743 186.126 53.8084C187.09 51.5781 187.571 49.1358 187.571 46.4814C187.578 44.1496 187.16 41.8365 186.336 39.6582C185.544 37.5325 184.348 35.5841 182.814 33.923C181.248 32.2475 179.362 30.9109 177.269 29.9946C175.095 29.0203 172.642 28.5335 169.909 28.5342C167.035 28.5342 164.476 29.0651 162.234 30.1271C159.992 31.189 158.09 32.5871 156.53 34.3215C154.979 36.0438 153.774 38.0544 152.983 40.2413C152.188 42.3904 151.779 44.6652 151.774 46.9591C151.768 49.2277 152.178 51.4777 152.983 53.5956C153.762 55.6772 154.929 57.5881 156.423 59.2244C157.918 60.8567 159.741 62.1662 161.891 63.1528ZM155.294 46.2143C155.306 44.3333 155.627 42.4673 156.242 40.6919C156.859 38.8418 157.795 37.1164 159.007 35.5951C160.219 34.0718 161.712 32.8004 163.404 31.8513C165.124 30.8784 167.072 30.3916 169.25 30.3909C171.497 30.3909 173.524 30.8954 175.333 31.9045C177.123 32.8972 178.707 34.2304 179.997 35.8308C181.294 37.4408 182.31 39.2635 182.998 41.2196C184.336 44.8393 184.402 48.8136 183.183 52.4761C182.603 54.281 181.702 55.9637 180.524 57.4415C179.301 58.9688 177.788 60.2327 176.073 61.1582C174.3 62.1311 172.237 62.6707 169.885 62.7771C167.851 62.7961 165.846 62.2841 164.066 61.2906C162.3 60.3053 160.736 58.9898 159.457 57.4143C158.156 55.8172 157.124 54.0146 156.402 52.0787C155.683 50.2086 155.309 48.2215 155.297 46.2154L155.294 46.2143Z" fill="black"/>
</svg>
